# xmcd
#
# Track frame offsets:
#	150
#	3876
#	7976
#	10204
#	14141
#	17373
#	21584
#	25610
#	33009
#	37902
#
# Disc length: 569 seconds
#
# Revision: 0
# Processed by: cddbd v1.5PL3 Copyright (c) Steve Scherf et al.
# Submitted via: EasyCDDAExtractor 5.0.5.1
#
DISCID=5b02370a
DTITLE=To Separate the Flesh from the Bones - For Those About to Rot
DYEAR=1900
DGENRE=
TTITLE0=Infected Rectum
TTITLE1=Breast-Fed by Blood
TTITLE2=Rotten Vagina
TTITLE3=Filthy Cunt
TTITLE4=Genital Massacre
TTITLE5=Chainsaw Fuck
TTITLE6=Die Like a Wimp
TTITLE7=Flesh That Lies Beneath
TTITLE8=Fistfucked 'til Death
TTITLE9=Spermjerker
EXTD=
EXTT0=
EXTT1=
EXTT2=
EXTT3=
EXTT4=
EXTT5=
EXTT6=
EXTT7=
EXTT8=
EXTT9=
PLAYORDER=
